<svg width="40" height="40" viewBox="0 0 40 40" fill="none" xmlns="http://www.w3.org/2000/svg">
<path fill-rule="evenodd" clip-rule="evenodd" d="M27.302 14.1374C32.7965 14.1374 34.4406 17.3546 34.867 21.1262L34.8964 21.4066C34.9145 21.5941 34.9299 21.7828 34.9427 21.9724L34.9602 22.2574C34.968 22.4002 34.9746 22.5434 34.9799 22.6868L34.9891 22.974C34.9903 23.0219 34.9915 23.0699 34.9925 23.1178L34.9974 23.4056L34.9997 23.6936L35 34.4501C35 34.7026 34.8068 34.9098 34.5602 34.932L34.5161 34.934H28.5045C28.2521 34.934 28.0449 34.7408 28.0226 34.4942L28.0206 34.4501L28.0203 24.8505L28.0166 24.4698L28.0106 24.1912L28.0048 24.009L27.9971 23.8297L27.9876 23.6535L27.9759 23.4805C27.9738 23.452 27.9716 23.4236 27.9693 23.3953L27.9541 23.2273L27.9364 23.0629C27.9332 23.0358 27.9299 23.0089 27.9265 22.9821L27.9046 22.8232C27.8968 22.7709 27.8885 22.7192 27.8796 22.6682L27.8514 22.5171C27.5925 21.2254 26.9495 20.3948 25.3771 20.3948C23.6185 20.3948 22.6994 21.1634 22.3822 23.0414L22.353 23.2297C22.3439 23.2937 22.3354 23.3588 22.3275 23.4252L22.3059 23.6281L22.288 23.8383C22.2853 23.8739 22.2828 23.9099 22.2804 23.9461L22.268 24.1675C22.2627 24.2801 22.2588 24.3955 22.2561 24.5138L22.2527 24.7542L22.2522 34.45C22.2522 34.7025 22.059 34.9098 21.8124 34.932L21.7684 34.934H15.759C15.5065 34.934 15.2993 34.7407 15.2771 34.4941L15.2751 34.45V15.1022C15.2751 14.8498 15.4683 14.6425 15.7149 14.6203L15.759 14.6183H21.5266C21.7791 14.6183 21.9863 14.8116 22.0085 15.0581L22.0105 15.1022V16.3588C23.095 15.1773 24.8831 14.1374 27.302 14.1374ZM11.9832 14.6183C12.2357 14.6183 12.4429 14.8116 12.4651 15.0581L12.4671 15.1022V34.45C12.4671 34.7025 12.2739 34.9097 12.0273 34.9319L11.9832 34.9339H5.96068C5.70824 34.9339 5.50103 34.7407 5.47878 34.4941L5.47681 34.45V15.1022C5.47681 14.8498 5.66999 14.6425 5.91663 14.6203L5.96068 14.6183H11.9832ZM8.97413 5C11.1637 5 12.9452 6.78084 12.9451 8.96977C12.9451 11.1596 11.1637 12.9412 8.97413 12.9412C6.78277 12.9412 5 11.1597 5 8.96977C5 6.78084 6.78277 5 8.97413 5Z" fill="black" fill-opacity="0.8"/>
</svg>
