<svg width="72" height="72" viewBox="0 0 72 72" fill="none" xmlns="http://www.w3.org/2000/svg">
<path d="M6 6C4.34315 6 3 7.34315 3 9V18C3 19.6569 4.34315 21 6 21H15C16.6569 21 18 19.6569 18 18H25.5C27.9853 18 30 20.0147 30 22.5V49.5C30 56.9558 36.0442 63 43.5 63H54C54 64.6569 55.3431 66 57 66H66C67.6569 66 69 64.6569 69 63V54C69 52.3431 67.6569 51 66 51H57C55.3431 51 54 52.3431 54 54H43.5C41.0147 54 39 51.9853 39 49.5V38.2318C40.4075 38.7293 41.9221 39 43.5 39H55.3934L59.3787 42.9853C60.5503 44.1568 62.4497 44.1568 63.6213 42.9853L69.9853 36.6213C71.1569 35.4497 71.1569 33.5502 69.9853 32.3787L63.6213 26.0147C62.4497 24.8431 60.5503 24.8431 59.3787 26.0147L55.3934 30H43.5C41.0147 30 39 27.9853 39 25.5V22.5C39 15.0442 32.9558 9 25.5 9H18C18 7.34315 16.6569 6 15 6H6Z" fill="black" fill-opacity="0.8"/>
</svg>
