<svg width="72" height="72" viewBox="0 0 72 72" fill="none" xmlns="http://www.w3.org/2000/svg">
<path d="M6 0H29.3972L20.3972 9H9V20.3972L0 29.3972V6C0 2.68629 2.68629 0 6 0Z" fill="black" fill-opacity="0.8"/>
<path d="M63 9V21L72 30V6C72 2.68629 69.3137 0 66 0H42L51 9H63Z" fill="black" fill-opacity="0.8"/>
<path d="M63 63H50.397L41.397 72H66C69.3137 72 72 69.3137 72 66V41.397L63 50.397V63Z" fill="black" fill-opacity="0.8"/>
<path d="M9 63V50.9997L0 41.9997V66C0 69.3137 2.68629 72 6 72H30.0003L21.0003 63H9Z" fill="black" fill-opacity="0.8"/>
<path fill-rule="evenodd" clip-rule="evenodd" d="M31.4556 10.2426C33.7987 7.89949 37.5977 7.89949 39.9409 10.2426L61.1541 31.4558C63.4972 33.799 63.4972 37.598 61.1541 39.9411L39.9409 61.1543C37.5977 63.4975 33.7987 63.4975 31.4556 61.1543L10.2424 39.9411C7.89925 37.598 7.89925 33.799 10.2424 31.4558L31.4556 10.2426ZM18.7277 35.6985L35.6982 18.7279L52.6688 35.6985L35.6982 52.669L18.7277 35.6985Z" fill="black" fill-opacity="0.8"/>
</svg>
