<?xml version="1.0" encoding="UTF-8"?>
<svg width="1537px" height="1371px" viewBox="0 0 1537 1371" version="1.1" xmlns="http://www.w3.org/2000/svg" xmlns:xlink="http://www.w3.org/1999/xlink">
    <!-- Generator: Sketch 62 (91390) - https://sketch.com -->
    <title>Logo</title>
    <desc>Created with Sketch.</desc>
    <g id="Logo" stroke="none" stroke-width="1" fill="none" fill-rule="evenodd">
        <path d="M790.15,423.01 C790.15,398.77 775.34,377.99 754.28,369.21 C706.27,278.68 611.08,217 501.46,217 C392.68,217 298.09,277.73 249.73,367.14 C225.61,374.27 208,396.58 208,423.01 C208,435.8 212.13,447.62 219.12,457.23 C216.72,472.14 215.46,487.42 215.46,503 C215.46,660.95 343.51,789 501.46,789 C659.41,789 787.46,660.95 787.46,503 C787.46,485.36 785.85,468.1 782.8,451.34 C787.48,442.95 790.15,433.29 790.15,423.01 Z M763.5,423.01 C763.5,432.05 759.7,440.2 753.62,445.96 C747.95,451.33 740.31,454.63 731.88,454.63 C714.42,454.63 700.26,440.47 700.26,423.01 C700.26,405.55 714.42,391.39 731.88,391.39 C732.84,391.39 733.79,391.44 734.73,391.52 C750.86,392.96 763.5,406.51 763.5,423.01 Z M501.46,244.51 C593.83,244.51 674.87,292.97 720.58,365.84 C696.48,370.58 677.72,390.17 674.22,414.68 C642.09,351.94 576.8,308.99 501.46,308.99 C422.7,308.99 354.92,355.93 324.53,423.35 C324.53,423.23 324.54,423.11 324.54,423 C324.54,396.17 306.4,373.59 281.73,366.82 C327.33,293.41 408.68,244.51 501.46,244.51 Z M571.97,495.42 C571.97,495.47 571.98,495.51 571.98,495.56 C571.01,486.25 568.25,477.48 564.03,469.59 C563.81,469.18 563.58,468.77 563.35,468.36 C563.53,468.68 563.72,469 563.89,469.32 L674.27,431.69 C675.64,440.87 679.17,449.34 684.3,456.6 L571.97,495.42 Z M501.46,545.12 C478.2,545.12 459.34,526.26 459.34,503 C459.34,479.74 478.2,460.88 501.46,460.88 C524.72,460.88 543.58,479.74 543.58,503 C543.58,526.26 524.72,545.12 501.46,545.12 Z M429.17,496.45 L313.87,456.6 C319,449.34 322.52,440.87 323.9,431.69 L436.85,470.2 L429.17,496.45 Z M266.27,391.39 C266.92,391.39 267.57,391.42 268.22,391.46 C284.78,392.47 297.89,406.2 297.89,423.01 C297.89,440.47 283.73,454.63 266.27,454.63 C259.72,454.63 253.63,452.64 248.59,449.23 C240.18,443.55 234.65,433.93 234.65,423.01 C234.66,405.54 248.81,391.39 266.27,391.39 Z M501.46,761.49 C358.7,761.49 242.97,645.76 242.97,503 C242.97,494.21 243.41,485.53 244.27,476.97 C251.06,479.74 258.48,481.28 266.27,481.28 C285.22,481.28 302.04,472.23 312.68,458.23 C309.28,472.61 307.45,487.59 307.45,503.01 C307.45,610.15 394.31,697.01 501.45,697.01 C608.59,697.01 695.45,610.15 695.45,503.01 C695.45,490.09 694.17,477.47 691.76,465.26 C702.21,475.19 716.32,481.29 731.87,481.29 C741.43,481.29 750.45,478.97 758.41,474.89 C759.41,484.13 759.94,493.51 759.94,503.01 C759.95,645.76 644.22,761.49 501.46,761.49 Z" id="Shape" fill="#025394" fill-rule="nonzero"></path>
        <rect id="Rectangle" fill="#F7941E" x="206" y="845" width="1128" height="148"></rect>
        <rect id="Rectangle" fill="#025394" x="204" y="1006" width="701" height="148"></rect>
        <path d="M262.2,974.5 C263.85,974.5 264.9,973 264.9,971.5 L264.9,874.75 L294.15,874.75 C295.8,874.75 297,873.85 297,872.35 L297,865.75 C297,864.1 295.8,863.05 294.15,863.05 L222,863.05 C220.35,863.05 219,864.25 219,865.75 L219,872.35 C219,874 220.35,874.75 222,874.75 L251.25,874.75 L251.25,971.5 C251.25,973.15 252.45,974.5 253.95,974.5 L262.2,974.5 Z M318.6,974.5 C320.25,974.5 321.6,973.15 321.6,971.5 L321.6,921.7 L372.9,921.7 L372.9,971.5 C372.9,973.15 374.25,974.5 375.9,974.5 L383.55,974.5 C385.2,974.5 386.55,973.15 386.55,971.5 L386.55,866.05 C386.55,864.4 385.2,863.05 383.55,863.05 L375.9,863.05 C374.25,863.05 372.9,864.4 372.9,866.05 L372.9,909.55 L321.6,909.55 L321.6,866.05 C321.6,864.4 320.25,863.05 318.6,863.05 L310.95,863.05 C309.3,863.05 307.95,864.4 307.95,866.05 L307.95,971.5 C307.95,973.15 309.3,974.5 310.95,974.5 L318.6,974.5 Z M465.15,974.8 C466.05,974.65 466.65,973.6 466.65,972.7 L466.65,965.05 C466.65,964 466.05,963.25 465,963.25 L436.05,963.25 C420.309,963.25 417.652335,959.13358 417.600776,947.989843 L417.6,922.45 L463.65,922.45 C465.3,922.45 466.65,921.1 466.65,919.45 L466.65,913.75 C466.65,912.1 465.3,910.75 463.65,910.75 L417.6,910.75 L417.6,889.9 C417.6,878.5 420.15,874.3 436.05,874.3 L465,874.3 C466.05,874.3 466.65,873.55 466.65,872.5 L466.65,865 C466.65,864.1 466.05,863.05 465.15,862.9 C458.85,862.3 444.75,862 435.9,862 C414.9,862 403.95,869.95 403.95,889.9 L403.95,947.65 C403.95,967.6 414.9,975.55 435.9,975.55 L436.887947,975.55 C445.80719,975.538496 459.657273,975.378182 465.15,974.8 Z M515.7,974.5 C516.9,974.5 518.1,973.45 518.4,972.25 L528,937.75 L566.85,937.75 L576.6,972.25 C576.9,973.45 577.8,974.5 579.15,974.5 L588,974.5 C589.65,974.5 590.55,973.45 590.55,972.1 C590.55,971.8 590.55,971.35 590.4,971.05 L562.65,873.25 C560.1,864.1 553.05,862 547.5,862 C541.8,862 534.75,864.25 532.2,873.4 L504.45,971.05 C504.3,971.35 504.3,971.8 504.3,972.1 C504.3,973.45 505.35,974.5 506.85,974.5 L515.7,974.5 Z M564,925.9 L530.85,925.9 L544.5,876.55 C544.95,874.9 545.85,873.85 547.5,873.85 C549,873.85 549.9,874.9 550.35,876.55 L564,925.9 Z M668.55,973.9 C671.55,973.45 672.75,972.85 672.75,969.1 L672.75,866.05 C672.75,864.4 671.7,863.05 670.05,863.05 L661.8,863.05 C660.15,863.05 659.1,864.55 659.1,866.05 L659.1,962.8 C655.35,963.1 643.35,963.7 636.9,963.7 C618.3,963.7 609.3,958.45 609.3,932.35 L609.3,866.05 C609.3,864.4 608.25,863.05 606.75,863.05 L598.35,863.05 C596.7,863.05 595.65,864.55 595.65,866.05 L595.65,932.35 C595.65,965.5 609.6,975.7 636.6,975.7 C644.25,975.7 660.6,975.1 668.55,973.9 Z M726.9,974.5 C728.55,974.5 729.6,973 729.6,971.5 L729.6,874.75 L758.85,874.75 C760.5,874.75 761.7,873.85 761.7,872.35 L761.7,865.75 C761.7,864.1 760.5,863.05 758.85,863.05 L686.7,863.05 C685.05,863.05 683.7,864.25 683.7,865.75 L683.7,872.35 C683.7,874 685.05,874.75 686.7,874.75 L715.95,874.75 L715.95,971.5 C715.95,973.15 717.15,974.5 718.65,974.5 L726.9,974.5 Z M803.85,975.55 C827.4,975.55 844.35,961.75 844.35,928.45 L844.35,909.1 C844.35,875.8 827.4,862 803.85,862 C780.3,862 763.2,875.8 763.2,909.1 L763.2,928.45 C763.2,961.75 780.3,975.55 803.85,975.55 Z M803.85,963.25 C787.35,963.25 777,953.65 777,928.45 L777,909.1 C777,883.9 787.5,874.3 803.85,874.3 C820.35,874.3 830.55,883.9 830.55,909.1 L830.55,928.45 C830.55,953.65 820.2,963.25 803.85,963.25 Z M869.85,974.5 C871.05,974.5 872.4,973.6 872.4,971.95 L872.4,877.75 C872.4,876.25 872.85,876.1 873.45,876.1 C874.05,876.1 874.5,876.4 874.95,877.75 L893.55,925.45 C895.05,929.35 896.7,931.45 900.6,931.45 L908.4,931.45 C912.3,931.45 913.95,929.35 915.45,925.45 L934.05,877.75 C934.5,876.4 934.95,876.1 935.55,876.1 C936.15,876.1 936.6,876.25 936.6,877.75 L936.6,971.95 C936.6,973.6 937.95,974.5 939.15,974.5 L947.4,974.5 C949.05,974.5 949.95,973.3 949.95,971.5 L949.95,873.7 C949.95,863.65 945.6,863.05 939.75,863.05 L934.2,863.05 C927.9,863.05 926.1,865 922.95,873.1 L905.55,918.7 C905.1,920.05 904.95,920.05 904.5,920.05 C904.05,920.05 903.9,920.05 903.45,918.7 L886.05,873.1 C882.9,865 881.4,863.05 874.8,863.05 L869.25,863.05 C863.4,863.05 859.05,863.65 859.05,873.7 L859.05,971.5 C859.05,973.3 859.95,974.5 861.6,974.5 L869.85,974.5 Z M1005.3,975.55 C1028.85,975.55 1045.8,961.75 1045.8,928.45 L1045.8,909.1 C1045.8,875.8 1028.85,862 1005.3,862 C981.75,862 964.65,875.8 964.65,909.1 L964.65,928.45 C964.65,961.75 981.75,975.55 1005.3,975.55 Z M1005.3,963.25 C988.8,963.25 978.45,953.65 978.45,928.45 L978.45,909.1 C978.45,883.9 988.95,874.3 1005.3,874.3 C1021.8,874.3 1032,883.9 1032,909.1 L1032,928.45 C1032,953.65 1021.65,963.25 1005.3,963.25 Z M1090.5,974.5 C1092.15,974.5 1093.2,973 1093.2,971.5 L1093.2,874.75 L1122.45,874.75 C1124.1,874.75 1125.3,873.85 1125.3,872.35 L1125.3,865.75 C1125.3,864.1 1124.1,863.05 1122.45,863.05 L1050.3,863.05 C1048.65,863.05 1047.3,864.25 1047.3,865.75 L1047.3,872.35 C1047.3,874 1048.65,874.75 1050.3,874.75 L1079.55,874.75 L1079.55,971.5 C1079.55,973.15 1080.75,974.5 1082.25,974.5 L1090.5,974.5 Z M1148.7,974.5 C1150.35,974.5 1151.4,973 1151.4,971.5 L1151.4,865.9 C1151.4,864.25 1150.2,863.05 1148.7,863.05 L1140.45,863.05 C1138.8,863.05 1137.75,864.4 1137.75,865.9 L1137.75,971.5 C1137.75,973.15 1138.95,974.5 1140.45,974.5 L1148.7,974.5 Z M1206.9,975.55 C1212.6,975.55 1219.5,973.6 1222.2,964.15 L1249.8,866.5 C1249.95,866.2 1249.95,865.9 1249.95,865.6 C1249.95,864.1 1248.9,863.05 1247.4,863.05 L1238.55,863.05 C1237.35,863.05 1236.3,864.1 1236,865.3 L1209.75,960.85 C1209.15,962.95 1208.4,964 1206.9,964 C1205.25,964 1204.5,962.95 1203.9,960.85 L1177.8,865.3 C1177.5,864.1 1176.3,863.05 1175.1,863.05 L1166.4,863.05 C1164.9,863.05 1163.7,864.1 1163.7,865.6 C1163.7,865.9 1163.7,866.2 1163.85,866.5 L1191.6,964.15 C1194.3,973.6 1201.35,975.55 1206.9,975.55 Z M1319.4,974.8 C1320.3,974.65 1320.9,973.6 1320.9,972.7 L1320.9,965.05 C1320.9,964 1320.3,963.25 1319.25,963.25 L1290.3,963.25 C1274.559,963.25 1271.90233,959.13358 1271.85078,947.989843 L1271.85,922.45 L1317.9,922.45 C1319.55,922.45 1320.9,921.1 1320.9,919.45 L1320.9,913.75 C1320.9,912.1 1319.55,910.75 1317.9,910.75 L1271.85,910.75 L1271.85,889.9 C1271.85,878.5 1274.4,874.3 1290.3,874.3 L1319.25,874.3 C1320.3,874.3 1320.9,873.55 1320.9,872.5 L1320.9,865 C1320.9,864.1 1320.3,863.05 1319.4,862.9 C1313.1,862.3 1299,862 1290.15,862 C1269.15,862 1258.2,869.95 1258.2,889.9 L1258.2,947.65 C1258.2,967.6 1269.15,975.55 1290.15,975.55 L1291.13795,975.55 C1300.05719,975.538496 1313.90727,975.378182 1319.4,974.8 Z" id="THEAUTOMOTIVE" fill="#FFFFFF" fill-rule="nonzero"></path>
        <path d="M259.65,1136.55 C283.2,1136.55 300.15,1122.75 300.15,1089.45 L300.15,1070.1 C300.15,1036.8 283.2,1023 259.65,1023 C236.1,1023 219,1036.8 219,1070.1 L219,1089.45 C219,1122.75 236.1,1136.55 259.65,1136.55 Z M259.65,1124.25 C243.15,1124.25 232.8,1114.65 232.8,1089.45 L232.8,1070.1 C232.8,1044.9 243.3,1035.3 259.65,1035.3 C276.15,1035.3 286.35,1044.9 286.35,1070.1 L286.35,1089.45 C286.35,1114.65 276,1124.25 259.65,1124.25 Z M393.45,1123.8 L393.45,1027.05 C393.45,1025.25 392.55,1024.05 390.9,1024.05 L382.95,1024.05 C381.75,1024.05 380.4,1024.95 380.4,1026.6 L380.3994,1120.6275 C380.394,1121.8425 380.34,1122.45 379.8,1122.45 C379.2,1122.45 379.05,1122.15 378.45,1120.8 L340.8,1032.3 C337.65,1024.95 333.9,1023.75 329.7,1023.75 L326.4,1023.75 C320.55,1023.75 314.85,1024.95 314.85,1036.05 L314.85,1132.5 C314.85,1134.3 315.75,1135.5 317.4,1135.5 L325.35,1135.5 C326.55,1135.5 327.9,1134.6 327.9,1132.95 L327.9,1039.2 C327.9,1037.7 327.9,1037.55 328.5,1037.55 C329.1,1037.55 328.95,1037.85 329.55,1039.2 L367.65,1127.85 C370.65,1134.9 373.8,1136.1 378.6,1136.1 L381.9,1136.1 C387.75,1136.1 393.45,1134.9 393.45,1123.8 Z M442.5,1135.5 C444.15,1135.5 445.2,1134 445.2,1132.5 L445.2,1035.75 L474.45,1035.75 C476.1,1035.75 477.3,1034.85 477.3,1033.35 L477.3,1026.75 C477.3,1025.1 476.1,1024.05 474.45,1024.05 L402.3,1024.05 C400.65,1024.05 399.3,1025.25 399.3,1026.75 L399.3,1033.35 C399.3,1035 400.65,1035.75 402.3,1035.75 L431.55,1035.75 L431.55,1132.5 C431.55,1134.15 432.75,1135.5 434.25,1135.5 L442.5,1135.5 Z M519.45,1136.55 C543,1136.55 559.95,1122.75 559.95,1089.45 L559.95,1070.1 C559.95,1036.8 543,1023 519.45,1023 C495.9,1023 478.8,1036.8 478.8,1070.1 L478.8,1089.45 C478.8,1122.75 495.9,1136.55 519.45,1136.55 Z M519.45,1124.25 C502.95,1124.25 492.6,1114.65 492.6,1089.45 L492.6,1070.1 C492.6,1044.9 503.1,1035.3 519.45,1035.3 C535.95,1035.3 546.15,1044.9 546.15,1070.1 L546.15,1089.45 C546.15,1114.65 535.8,1124.25 519.45,1124.25 Z M635.85,1135.2 C636.75,1135.05 637.35,1134 637.35,1133.1 L637.35,1126.05 C637.35,1125 636.75,1124.25 635.7,1124.25 L606.75,1124.25 C591.009,1124.25 588.352335,1120.13358 588.300776,1108.98984 L588.3,1027.05 C588.3,1025.4 586.95,1024.05 585.3,1024.05 L577.65,1024.05 C576,1024.05 574.65,1025.4 574.65,1027.05 L574.65,1108.65 C574.65,1133.1525 590.23359,1136.48484 606.118561,1136.55 L606.6,1136.55 C620.7,1136.55 631.95,1135.8 635.85,1135.2 Z M676.95,1136.55 C700.5,1136.55 717.45,1122.75 717.45,1089.45 L717.45,1070.1 C717.45,1036.8 700.5,1023 676.95,1023 C653.4,1023 636.3,1036.8 636.3,1070.1 L636.3,1089.45 C636.3,1122.75 653.4,1136.55 676.95,1136.55 Z M676.95,1124.25 C660.45,1124.25 650.1,1114.65 650.1,1089.45 L650.1,1070.1 C650.1,1044.9 660.6,1035.3 676.95,1035.3 C693.45,1035.3 703.65,1044.9 703.65,1070.1 L703.65,1089.45 C703.65,1114.65 693.3,1124.25 676.95,1124.25 Z M797.85,1134.3 C799.5,1134 800.55,1132.65 800.55,1131 L800.55,1074.45 C800.55,1072.8 799.35,1071.75 797.7,1071.75 L767.85,1071.75 C766.2,1071.75 765,1072.95 765,1074.45 L765,1080.9 C765,1082.55 766.2,1083.45 767.85,1083.45 L786.9,1083.45 L786.9,1123.5 C783.3,1123.8 777.15,1124.4 768,1124.4 C754.05,1124.4 742.8,1114.65 742.8,1089.9 L742.8,1069.8 C742.8,1042.8 755.4,1035.3 769.35,1035.3 C782.1,1035.3 789,1035.6 797.85,1036.35 L798.45,1036.35 C799.8,1036.35 800.4,1035.9 800.4,1034.85 L800.4,1027.35 C800.4,1025.85 799.2,1025.25 797.85,1025.1 C792.15,1024.2 783.3,1023 769.35,1023 C750.15,1023 729.15,1033.35 729.15,1069.8 L729.15,1089.9 C729.15,1124.25 749.25,1136.55 768,1136.55 C782.1,1136.55 790.5,1135.5 797.85,1134.3 Z M855.15,1135.5 C856.8,1135.5 857.85,1134 857.85,1132.5 L857.85,1090.2 L889.2,1027.8 C889.5,1027.2 889.65,1026.6 889.65,1026.15 C889.65,1024.8 888.6,1024.05 887.1,1024.05 L877.8,1024.05 C876.6,1024.05 875.7,1025.1 875.25,1026.15 L850.95,1077 L826.65,1026.15 C826.2,1025.1 825.15,1024.05 824.1,1024.05 L814.65,1024.05 C813.15,1024.05 812.25,1024.8 812.25,1026 C812.25,1026.45 812.4,1027.05 812.7,1027.8 L844.05,1090.2 L844.05,1132.5 C844.05,1134.15 845.1,1135.5 846.6,1135.5 L855.15,1135.5 Z" id="ONTOLOGY" fill="#FFFFFF" fill-rule="nonzero"></path>
    </g>
</svg>