<svg width="24" height="24" viewBox="0 0 24 24" fill="none" xmlns="http://www.w3.org/2000/svg">
<path d="M2 2C1.44772 2 1 2.44772 1 3V6C1 6.55228 1.44772 7 2 7H5C5.55228 7 6 6.55228 6 6H8.5C9.32843 6 10 6.67157 10 7.5V16.5C10 18.9853 12.0147 21 14.5 21H18C18 21.5523 18.4477 22 19 22H22C22.5523 22 23 21.5523 23 21V18C23 17.4477 22.5523 17 22 17H19C18.4477 17 18 17.4477 18 18H14.5C13.6716 18 13 17.3284 13 16.5V12.7439C13.4692 12.9098 13.974 13 14.5 13H18.4645L19.7929 14.3284C20.1834 14.7189 20.8166 14.7189 21.2071 14.3284L23.3284 12.2071C23.719 11.8166 23.719 11.1834 23.3284 10.7929L21.2071 8.67157C20.8166 8.28104 20.1834 8.28104 19.7929 8.67157L18.4645 10H14.5C13.6716 10 13 9.32843 13 8.5V7.5C13 5.01472 10.9853 3 8.5 3H6C6 2.44772 5.55228 2 5 2H2Z" fill="black" fill-opacity="0.8"/>
</svg>
