<svg width="40" height="40" viewBox="0 0 40 40" fill="none" xmlns="http://www.w3.org/2000/svg">
<path fill-rule="evenodd" clip-rule="evenodd" d="M34.3201 10.8346C33.8488 11.0436 33.3643 11.2201 32.8692 11.3633C33.4553 10.7004 33.9022 9.92038 34.175 9.06684C34.2362 8.87551 34.1728 8.66609 34.0155 8.54097C33.8585 8.41574 33.6402 8.40074 33.4673 8.50322C32.4159 9.12683 31.2815 9.57499 30.092 9.83706C28.8939 8.66629 27.2665 8 25.5842 8C22.0331 8 19.144 10.889 19.144 14.44C19.144 14.7197 19.1617 14.9978 19.1967 15.2721C14.7902 14.8852 10.6934 12.7193 7.8802 9.26842C7.77995 9.14542 7.6255 9.07913 7.46737 9.0918C7.30914 9.10419 7.16698 9.19342 7.08705 9.33054C6.51647 10.3096 6.21482 11.4294 6.21482 12.5687C6.21482 14.1205 6.76885 15.5928 7.74753 16.7432C7.44995 16.6402 7.16117 16.5114 6.88556 16.3584C6.7376 16.276 6.55702 16.2773 6.41002 16.3616C6.26292 16.4458 6.17069 16.6009 6.16682 16.7703C6.16615 16.7989 6.16615 16.8274 6.16615 16.8564C6.16615 19.1726 7.41279 21.258 9.31875 22.3946C9.15501 22.3783 8.99136 22.3546 8.82878 22.3235C8.66117 22.2915 8.48882 22.3502 8.37578 22.4781C8.26256 22.6058 8.22511 22.7839 8.27727 22.9464C8.98275 25.149 10.7991 26.7691 12.9949 27.263C11.1737 28.4037 9.09104 29.0012 6.90472 29.0012C6.44853 29.0012 5.98973 28.9744 5.5407 28.9213C5.31763 28.8947 5.10434 29.0264 5.02838 29.2386C4.95241 29.4508 5.03292 29.6874 5.2227 29.8091C8.03137 31.6099 11.279 32.5618 14.6143 32.5618C21.1711 32.5618 25.2729 29.4699 27.5592 26.876C30.4101 23.6418 32.0452 19.3608 32.0452 15.1309C32.0452 14.9542 32.0425 14.7757 32.0371 14.5978C33.1619 13.7504 34.1303 12.7248 34.9183 11.546C35.0381 11.367 35.0251 11.1303 34.8864 10.9655C34.7479 10.8006 34.5171 10.7473 34.3201 10.8346Z" fill="black" fill-opacity="0.8"/>
</svg>
