<svg width="24" height="24" viewBox="0 0 24 24" fill="none" xmlns="http://www.w3.org/2000/svg">
<path d="M13.0001 16C13.0001 16.5523 12.5524 17 12.0001 17C11.4478 17 11.0001 16.5523 11.0001 16C11.0001 15.4477 11.4478 15 12.0001 15C12.5524 15 13.0001 15.4477 13.0001 16Z" fill="black" fill-opacity="0.8"/>
<path d="M12.0001 5.99997C11.4478 5.99997 11.0001 6.44768 11.0001 6.99997V13C11.0001 13.5523 11.4478 14 12.0001 14C12.5524 14 13.0001 13.5523 13.0001 13V6.99997C13.0001 6.44768 12.5524 5.99997 12.0001 5.99997Z" fill="black" fill-opacity="0.8"/>
<path fill-rule="evenodd" clip-rule="evenodd" d="M13.4143 0.685762C12.6332 -0.0952865 11.3669 -0.0952866 10.5859 0.685762L0.686372 10.5853C-0.0946761 11.3663 -0.0946763 12.6326 0.686372 13.4137L10.5859 23.3132C11.3669 24.0942 12.6332 24.0942 13.4143 23.3132L23.3138 13.4137C24.0948 12.6326 24.0948 11.3663 23.3138 10.5853L13.4143 0.685762ZM12.0001 3.51419L3.5148 11.9995L12.0001 20.4848L20.4854 11.9995L12.0001 3.51419Z" fill="black" fill-opacity="0.8"/>
</svg>
