<?xml version="1.0" encoding="UTF-8"?>
<svg width="583px" height="572px" viewBox="0 0 583 572" version="1.1" xmlns="http://www.w3.org/2000/svg" xmlns:xlink="http://www.w3.org/1999/xlink">
    <!-- Generator: Sketch 62 (91390) - https://sketch.com -->
    <title>wheel black</title>
    <desc>Created with Sketch.</desc>
    <g id="wheel-black" stroke="none" stroke-width="1" fill="none" fill-rule="evenodd">
        <path d="M582.15,206.01 C582.15,181.77 567.34,160.99 546.28,152.21 C498.27,61.68 403.08,0 293.46,0 C184.68,0 90.09,60.73 41.73,150.14 C17.61,157.27 -1.70530257e-13,179.58 -1.70530257e-13,206.01 C-1.70530257e-13,218.8 4.13,230.62 11.12,240.23 C8.72,255.14 7.46,270.42 7.46,286 C7.46,443.95 135.51,572 293.46,572 C451.41,572 579.46,443.95 579.46,286 C579.46,268.36 577.85,251.1 574.8,234.34 C579.48,225.95 582.15,216.29 582.15,206.01 Z M555.5,206.01 C555.5,215.05 551.7,223.2 545.62,228.96 C539.95,234.33 532.31,237.63 523.88,237.63 C506.42,237.63 492.26,223.47 492.26,206.01 C492.26,188.55 506.42,174.39 523.88,174.39 C524.84,174.39 525.79,174.44 526.73,174.52 C542.86,175.96 555.5,189.51 555.5,206.01 Z M293.46,27.51 C385.83,27.51 466.87,75.97 512.58,148.84 C488.48,153.58 469.72,173.17 466.22,197.68 C434.09,134.94 368.8,91.99 293.46,91.99 C214.7,91.99 146.92,138.93 116.53,206.35 C116.53,206.23 116.54,206.11 116.54,206 C116.54,179.17 98.4,156.59 73.73,149.82 C119.33,76.41 200.68,27.51 293.46,27.51 Z M363.97,278.42 C363.97,278.47 363.98,278.51 363.98,278.56 C363.01,269.25 360.25,260.48 356.03,252.59 C355.81,252.18 355.58,251.77 355.35,251.36 C355.53,251.68 355.72,252 355.89,252.32 L466.27,214.69 C467.64,223.87 471.17,232.34 476.3,239.6 L363.97,278.42 Z M293.46,328.12 C270.2,328.12 251.34,309.26 251.34,286 C251.34,262.74 270.2,243.88 293.46,243.88 C316.72,243.88 335.58,262.74 335.58,286 C335.58,309.26 316.72,328.12 293.46,328.12 Z M221.17,279.45 L105.87,239.6 C111,232.34 114.52,223.87 115.9,214.69 L228.85,253.2 L221.17,279.45 Z M58.27,174.39 C58.92,174.39 59.57,174.42 60.22,174.46 C76.78,175.47 89.89,189.2 89.89,206.01 C89.89,223.47 75.73,237.63 58.27,237.63 C51.72,237.63 45.63,235.64 40.59,232.23 C32.18,226.55 26.65,216.93 26.65,206.01 C26.66,188.54 40.81,174.39 58.27,174.39 Z M293.46,544.49 C150.7,544.49 34.97,428.76 34.97,286 C34.97,277.21 35.41,268.53 36.27,259.97 C43.06,262.74 50.48,264.28 58.27,264.28 C77.22,264.28 94.04,255.23 104.68,241.23 C101.28,255.61 99.45,270.59 99.45,286.01 C99.45,393.15 186.31,480.01 293.45,480.01 C400.59,480.01 487.45,393.15 487.45,286.01 C487.45,273.09 486.17,260.47 483.76,248.26 C494.21,258.19 508.32,264.29 523.87,264.29 C533.43,264.29 542.45,261.97 550.41,257.89 C551.41,267.13 551.94,276.51 551.94,286.01 C551.95,428.76 436.22,544.49 293.46,544.49 Z" id="Shape" fill="#000000" fill-rule="nonzero"></path>
    </g>
</svg>