<svg width="24" height="24" viewBox="0 0 24 24" fill="none" xmlns="http://www.w3.org/2000/svg">
<path d="M8 7.5C8 5.01472 10.0147 3 12.5 3H12.9802C15.2073 3 17 4.78693 17 7C17 8.2244 16.7018 8.98819 16.3217 9.5478C15.9131 10.1493 15.3476 10.6143 14.6 11.175C14.5322 11.2259 14.4619 11.2781 14.3896 11.3319C13.7307 11.8219 12.9057 12.4355 12.2662 13.2348C11.4952 14.1985 11 15.4025 11 17V19L14 18.9997V17C14 16.0975 14.2548 15.5515 14.6088 15.1089C14.9941 14.6273 15.5053 14.2447 16.2268 13.7047L16.4 13.575C17.1524 13.0107 18.0869 12.2882 18.8033 11.2334C19.5482 10.1368 20 8.7756 20 7C20 3.11602 16.8501 0 12.9802 0H12.5C8.35786 0 5 3.35787 5 7.5V7.99999H8V7.5Z" fill="black" fill-opacity="0.8"/>
<path d="M12.5 24C13.3284 24 14 23.3284 14 22.5C14 21.6716 13.3284 21 12.5 21C11.6716 21 11 21.6716 11 22.5C11 23.3284 11.6716 24 12.5 24Z" fill="black" fill-opacity="0.8"/>
</svg>
