<svg width="24" height="24" viewBox="0 0 24 24" fill="none" xmlns="http://www.w3.org/2000/svg">
<path d="M11 11C11 10.4477 11.4477 10 12 10C12.5523 10 13 10.4477 13 11V16C13 16.5523 12.5523 17 12 17C11.4477 17 11 16.5523 11 16V11Z" fill="black" fill-opacity="0.8"/>
<path d="M12 7C11.4477 7 11 7.44772 11 8C11 8.55228 11.4477 9 12 9C12.5523 9 13 8.55228 13 8C13 7.44772 12.5523 7 12 7Z" fill="black" fill-opacity="0.8"/>
<path fill-rule="evenodd" clip-rule="evenodd" d="M12 0C5.37258 0 0 5.37258 0 12C0 18.6274 5.37258 24 12 24C18.6274 24 24 18.6274 24 12C24 5.37258 18.6274 0 12 0ZM3 12C3 16.9706 7.02944 21 12 21C16.9706 21 21 16.9706 21 12C21 7.02944 16.9706 3 12 3C7.02944 3 3 7.02944 3 12Z" fill="black" fill-opacity="0.8"/>
</svg>
