<svg width="24" height="24" viewBox="0 0 24 24" fill="none" xmlns="http://www.w3.org/2000/svg">
<path fill-rule="evenodd" clip-rule="evenodd" d="M0 14.1401V22C0 23.1046 0.89543 24 2 24H9.85986L0 14.1401ZM14.1441 24H22C23.1046 24 24 23.1046 24 22V14.1441L14.1441 24ZM24 9.85587V2C24 0.895431 23.1046 0 22 0H14.1441L24 9.85587ZM9.85986 0H2C0.895431 0 0 0.89543 0 2V9.85986L9.85986 0Z" fill="#00B855"/>
<rect x="8" y="8" width="8" height="8" rx="4" fill="#FF6000"/>
<path fill-rule="evenodd" clip-rule="evenodd" d="M2.10434 10.5858C1.32329 11.3668 1.32329 12.6332 2.10434 13.4142L10.5896 21.8995C11.3707 22.6805 12.637 22.6805 13.418 21.8995L21.9033 13.4142C22.6844 12.6332 22.6844 11.3668 21.9033 10.5858L13.418 2.10051C12.637 1.31946 11.3707 1.31946 10.5896 2.10051L2.10434 10.5858ZM12 6.00002C8.68629 6.00002 6 8.68631 6 12C6 15.3137 8.68629 18 12 18C15.3137 18 18 15.3137 18 12C18 8.68631 15.3137 6.00002 12 6.00002Z" fill="#FEB700"/>
</svg>
