<svg width="24" height="24" viewBox="0 0 24 24" fill="none" xmlns="http://www.w3.org/2000/svg">
<path fill-rule="evenodd" clip-rule="evenodd" d="M0 12C0 5.37258 5.37258 0 12 0C18.6274 0 24 5.37258 24 12C24 18.6274 18.6274 24 12 24C5.37258 24 0 18.6274 0 12ZM12 5.875C10.3431 5.875 9 7.1342 9 8.6875V8.99999H7V8.6875C7 6.09867 9.23858 4 12 4H12.3201C14.9 4 17 5.94751 17 8.375C17 9.48475 16.6988 10.3355 16.2022 11.0209C15.7246 11.6802 15.1016 12.1317 14.6 12.4844L14.4846 12.5654C14.0035 12.903 13.6627 13.1421 13.4059 13.4431C13.1698 13.7197 13 14.0609 13 14.625V15.8748L11 15.875V14.625C11 13.6266 11.3302 12.8741 11.8441 12.2718C12.2704 11.7722 12.8205 11.3887 13.2597 11.0824C13.3079 11.0488 13.3548 11.0162 13.4 10.9844C13.8984 10.634 14.2754 10.3433 14.5478 9.96737C14.8012 9.61762 15 9.14025 15 8.375C15 6.99183 13.8049 5.875 12.3201 5.875H12ZM13 17V19H11V17H13Z" fill="black" fill-opacity="0.8"/>
</svg>
