<svg width="72" height="72" viewBox="0 0 72 72" fill="none" xmlns="http://www.w3.org/2000/svg">
<path d="M39 34.7574V15H33V37.2426L45.8787 50.1213L50.1213 45.8787L39 34.7574Z" fill="black" fill-opacity="0.8"/>
<path fill-rule="evenodd" clip-rule="evenodd" d="M72 36C72 55.8822 55.8822 72 36 72C16.1177 72 0 55.8822 0 36C0 16.1177 16.1177 0 36 0C55.8822 0 72 16.1177 72 36ZM63 36C63 50.9117 50.9117 63 36 63C21.0883 63 9 50.9117 9 36C9 21.0883 21.0883 9 36 9C50.9117 9 63 21.0883 63 36Z" fill="black" fill-opacity="0.8"/>
</svg>
